<mxfile host="app.diagrams.net" modified="2022-03-20T18:53:42.779Z" agent="5.0 (Macintosh; Intel Mac OS X 10_15_7) AppleWebKit/537.36 (KHTML, like Gecko) Chrome/99.0.4844.74 Safari/537.36" etag="iM4NySsXLw6Ml-fEOFNZ" version="16.2.7" type="github">
  <diagram id="C5RBs43oDa-KdzZeNtuy" name="Page-1">
    <mxGraphModel dx="2558" dy="996" grid="1" gridSize="10" guides="1" tooltips="1" connect="1" arrows="1" fold="1" page="1" pageScale="1" pageWidth="827" pageHeight="1169" math="0" shadow="0">
      <root>
        <mxCell id="WIyWlLk6GJQsqaUBKTNV-0" />
        <mxCell id="WIyWlLk6GJQsqaUBKTNV-1" parent="WIyWlLk6GJQsqaUBKTNV-0" />
        <mxCell id="WIyWlLk6GJQsqaUBKTNV-2" value="" style="rounded=0;html=1;jettySize=auto;orthogonalLoop=1;fontSize=11;endArrow=block;endFill=0;endSize=8;strokeWidth=1;shadow=0;labelBackgroundColor=none;edgeStyle=orthogonalEdgeStyle;" parent="WIyWlLk6GJQsqaUBKTNV-1" source="WIyWlLk6GJQsqaUBKTNV-3" target="WIyWlLk6GJQsqaUBKTNV-6" edge="1">
          <mxGeometry relative="1" as="geometry" />
        </mxCell>
        <mxCell id="WIyWlLk6GJQsqaUBKTNV-3" value="Tap On Jago option in Menu" style="rounded=1;whiteSpace=wrap;html=1;fontSize=12;glass=0;strokeWidth=1;shadow=0;" parent="WIyWlLk6GJQsqaUBKTNV-1" vertex="1">
          <mxGeometry x="174.5" y="50" width="137.5" height="60" as="geometry" />
        </mxCell>
        <mxCell id="WIyWlLk6GJQsqaUBKTNV-4" value="Yes" style="rounded=0;html=1;jettySize=auto;orthogonalLoop=1;fontSize=11;endArrow=block;endFill=0;endSize=8;strokeWidth=1;shadow=0;labelBackgroundColor=none;edgeStyle=orthogonalEdgeStyle;" parent="WIyWlLk6GJQsqaUBKTNV-1" source="WIyWlLk6GJQsqaUBKTNV-6" edge="1">
          <mxGeometry y="20" relative="1" as="geometry">
            <mxPoint as="offset" />
            <mxPoint x="242.5999999999999" y="470.08450704225334" as="targetPoint" />
          </mxGeometry>
        </mxCell>
        <mxCell id="qduJhVpH0MtROkVdRGZ6-0" value="No" style="edgeStyle=orthogonalEdgeStyle;rounded=0;orthogonalLoop=1;jettySize=auto;html=1;fontSize=12;fontColor=#000000;" parent="WIyWlLk6GJQsqaUBKTNV-1" source="WIyWlLk6GJQsqaUBKTNV-6" edge="1">
          <mxGeometry relative="1" as="geometry">
            <mxPoint x="460" y="280" as="targetPoint" />
          </mxGeometry>
        </mxCell>
        <mxCell id="WIyWlLk6GJQsqaUBKTNV-6" value="&lt;font&gt;&lt;span id=&quot;docs-internal-guid-bfeff473-7fff-e935-0ea0-84d0c82a8991&quot;&gt;&lt;span style=&quot;font-family: &amp;#34;arial&amp;#34; ; background-color: transparent ; vertical-align: baseline&quot;&gt;&lt;span&gt;&lt;font style=&quot;font-size: 12px&quot;&gt;GoPay Connect status&lt;br&gt;&lt;/font&gt;&lt;font style=&quot;font-size: 11px&quot;&gt;&amp;nbsp;is&amp;nbsp;&lt;b&gt;&lt;font color=&quot;#ff0000&quot;&gt;IN_PROGRESS&lt;/font&gt;&lt;/b&gt;&lt;/font&gt;&lt;/span&gt;&lt;br&gt;&lt;span&gt;&lt;b&gt;&lt;font style=&quot;font-size: 12px&quot;&gt;AND&lt;/font&gt;&lt;/b&gt;&lt;span style=&quot;font-size: 10px&quot;&gt; &lt;br&gt;&lt;/span&gt;&lt;span&gt;&lt;font style=&quot;font-size: 12px&quot;&gt;Payment Provide User Status&amp;nbsp;&lt;/font&gt;&lt;/span&gt;&lt;span style=&quot;font-size: 10px&quot;&gt;&amp;nbsp;&lt;/span&gt;&lt;/span&gt;&lt;/span&gt;&lt;span style=&quot;font-size: 10px ; font-family: &amp;#34;arial&amp;#34; ; background-color: transparent ; vertical-align: baseline&quot;&gt;&amp;nbsp;&lt;font&gt;&lt;span&gt;&lt;font color=&quot;#ff3333&quot; style=&quot;font-weight: bold&quot;&gt;CONNECT_IN_PROGRESS &lt;br&gt;&lt;/font&gt;&lt;b&gt;OR&lt;/b&gt;&lt;font color=&quot;#ff3333&quot; style=&quot;font-weight: bold&quot;&gt; RESUME_CONNECT&lt;/font&gt;&lt;/span&gt;&lt;/font&gt;&lt;/span&gt;&lt;/span&gt;&lt;br&gt;&lt;/font&gt;" style="rhombus;whiteSpace=wrap;html=1;shadow=0;fontFamily=Helvetica;fontSize=12;align=center;strokeWidth=1;spacing=6;spacingTop=-4;" parent="WIyWlLk6GJQsqaUBKTNV-1" vertex="1">
          <mxGeometry x="125" y="170" width="235" height="220" as="geometry" />
        </mxCell>
        <mxCell id="WSuzN-LJGqav70ifiTU6-0" style="edgeStyle=orthogonalEdgeStyle;rounded=0;orthogonalLoop=1;jettySize=auto;html=1;exitX=0.5;exitY=1;exitDx=0;exitDy=0;" edge="1" parent="WIyWlLk6GJQsqaUBKTNV-1" source="WIyWlLk6GJQsqaUBKTNV-11">
          <mxGeometry relative="1" as="geometry">
            <mxPoint x="244" y="590" as="targetPoint" />
          </mxGeometry>
        </mxCell>
        <mxCell id="WIyWlLk6GJQsqaUBKTNV-11" value="Show&lt;br&gt;Jago Combine Silk&lt;br&gt;Form(&lt;a href=&quot;https://docs.google.com/spreadsheets/d/17d47ueriOxUHNy9A7b_byrmzWVaJC8xTSUaFj6JVEag/edit#gid=1393920205&amp;amp;range=5:5&quot;&gt;Click here&lt;/a&gt;)" style="rounded=1;whiteSpace=wrap;html=1;fontSize=12;glass=0;strokeWidth=1;shadow=0;" parent="WIyWlLk6GJQsqaUBKTNV-1" vertex="1">
          <mxGeometry x="158.75" y="470" width="171.25" height="70" as="geometry" />
        </mxCell>
        <mxCell id="qduJhVpH0MtROkVdRGZ6-1" value="Check &lt;a href=&quot;https://docs.google.com/spreadsheets/d/17d47ueriOxUHNy9A7b_byrmzWVaJC8xTSUaFj6JVEag/edit#gid=1393920205&amp;amp;range=1:1&quot;&gt;here&lt;/a&gt;&amp;nbsp;other Scenario" style="rounded=1;whiteSpace=wrap;html=1;fontSize=12;fontColor=#000000;" parent="WIyWlLk6GJQsqaUBKTNV-1" vertex="1">
          <mxGeometry x="460" y="250" width="200" height="60" as="geometry" />
        </mxCell>
        <mxCell id="WSuzN-LJGqav70ifiTU6-3" value="" style="edgeStyle=orthogonalEdgeStyle;rounded=0;orthogonalLoop=1;jettySize=auto;html=1;" edge="1" parent="WIyWlLk6GJQsqaUBKTNV-1" source="WSuzN-LJGqav70ifiTU6-1">
          <mxGeometry relative="1" as="geometry">
            <mxPoint x="244.4000000000001" y="750.0250000000001" as="targetPoint" />
          </mxGeometry>
        </mxCell>
        <mxCell id="WSuzN-LJGqav70ifiTU6-1" value="On View Did Load &lt;br&gt;We are calling &lt;br&gt;Customer Detail Options and &lt;br&gt;TnC URL API" style="rounded=1;whiteSpace=wrap;html=1;fontSize=12;glass=0;strokeWidth=1;shadow=0;" vertex="1" parent="WIyWlLk6GJQsqaUBKTNV-1">
          <mxGeometry x="138.75" y="590" width="211.25" height="80" as="geometry" />
        </mxCell>
        <mxCell id="WSuzN-LJGqav70ifiTU6-8" value="Fail" style="edgeStyle=orthogonalEdgeStyle;rounded=0;orthogonalLoop=1;jettySize=auto;html=1;" edge="1" parent="WIyWlLk6GJQsqaUBKTNV-1" source="WSuzN-LJGqav70ifiTU6-4">
          <mxGeometry relative="1" as="geometry">
            <mxPoint x="128.3800000000001" y="800" as="targetPoint" />
          </mxGeometry>
        </mxCell>
        <mxCell id="WSuzN-LJGqav70ifiTU6-11" value="" style="edgeStyle=orthogonalEdgeStyle;rounded=0;orthogonalLoop=1;jettySize=auto;html=1;" edge="1" parent="WIyWlLk6GJQsqaUBKTNV-1" source="WSuzN-LJGqav70ifiTU6-4">
          <mxGeometry relative="1" as="geometry">
            <mxPoint x="244.37999999999965" y="930" as="targetPoint" />
          </mxGeometry>
        </mxCell>
        <mxCell id="WSuzN-LJGqav70ifiTU6-12" value="Success" style="edgeLabel;html=1;align=center;verticalAlign=middle;resizable=0;points=[];" vertex="1" connectable="0" parent="WSuzN-LJGqav70ifiTU6-11">
          <mxGeometry x="0.05" y="-1" relative="1" as="geometry">
            <mxPoint y="-1" as="offset" />
          </mxGeometry>
        </mxCell>
        <mxCell id="WSuzN-LJGqav70ifiTU6-4" value="API Status" style="rhombus;whiteSpace=wrap;html=1;" vertex="1" parent="WIyWlLk6GJQsqaUBKTNV-1">
          <mxGeometry x="196.38" y="750" width="96" height="100" as="geometry" />
        </mxCell>
        <mxCell id="WSuzN-LJGqav70ifiTU6-9" value="Show Error Card" style="rounded=1;whiteSpace=wrap;html=1;fontSize=12;fontColor=#000000;" vertex="1" parent="WIyWlLk6GJQsqaUBKTNV-1">
          <mxGeometry x="-10" y="770" width="140" height="60" as="geometry" />
        </mxCell>
        <mxCell id="WSuzN-LJGqav70ifiTU6-13" value="" style="edgeStyle=orthogonalEdgeStyle;rounded=0;orthogonalLoop=1;jettySize=auto;html=1;" edge="1" parent="WIyWlLk6GJQsqaUBKTNV-1" source="WSuzN-LJGqav70ifiTU6-14">
          <mxGeometry relative="1" as="geometry">
            <mxPoint x="244.4000000000001" y="1090.0250000000003" as="targetPoint" />
          </mxGeometry>
        </mxCell>
        <mxCell id="WSuzN-LJGqav70ifiTU6-14" value="Allow user to fill form&amp;nbsp;" style="rounded=1;whiteSpace=wrap;html=1;fontSize=12;glass=0;strokeWidth=1;shadow=0;" vertex="1" parent="WIyWlLk6GJQsqaUBKTNV-1">
          <mxGeometry x="138.75" y="930" width="211.25" height="80" as="geometry" />
        </mxCell>
        <mxCell id="WSuzN-LJGqav70ifiTU6-15" value="Fail" style="edgeStyle=orthogonalEdgeStyle;rounded=0;orthogonalLoop=1;jettySize=auto;html=1;" edge="1" parent="WIyWlLk6GJQsqaUBKTNV-1" source="WSuzN-LJGqav70ifiTU6-18">
          <mxGeometry relative="1" as="geometry">
            <mxPoint x="128.3800000000001" y="1140" as="targetPoint" />
          </mxGeometry>
        </mxCell>
        <mxCell id="WSuzN-LJGqav70ifiTU6-16" value="" style="edgeStyle=orthogonalEdgeStyle;rounded=0;orthogonalLoop=1;jettySize=auto;html=1;" edge="1" parent="WIyWlLk6GJQsqaUBKTNV-1" source="WSuzN-LJGqav70ifiTU6-18">
          <mxGeometry relative="1" as="geometry">
            <mxPoint x="244.37999999999965" y="1270" as="targetPoint" />
          </mxGeometry>
        </mxCell>
        <mxCell id="WSuzN-LJGqav70ifiTU6-17" value="Success" style="edgeLabel;html=1;align=center;verticalAlign=middle;resizable=0;points=[];" vertex="1" connectable="0" parent="WSuzN-LJGqav70ifiTU6-16">
          <mxGeometry x="0.05" y="-1" relative="1" as="geometry">
            <mxPoint y="-1" as="offset" />
          </mxGeometry>
        </mxCell>
        <mxCell id="WSuzN-LJGqav70ifiTU6-18" value="API Status" style="rhombus;whiteSpace=wrap;html=1;" vertex="1" parent="WIyWlLk6GJQsqaUBKTNV-1">
          <mxGeometry x="196.38" y="1090" width="96" height="100" as="geometry" />
        </mxCell>
        <mxCell id="WSuzN-LJGqav70ifiTU6-19" value="Show Error Card" style="rounded=1;whiteSpace=wrap;html=1;fontSize=12;fontColor=#000000;" vertex="1" parent="WIyWlLk6GJQsqaUBKTNV-1">
          <mxGeometry x="-10" y="1110" width="140" height="60" as="geometry" />
        </mxCell>
      </root>
    </mxGraphModel>
  </diagram>
</mxfile>
